<?xml version="1.0" encoding="UTF-8" standalone="no"?>
<!DOCTYPE svg PUBLIC "-//W3C//DTD SVG 1.1//EN"
 "http://www.w3.org/Graphics/SVG/1.1/DTD/svg11.dtd">
<!-- Generated by graphviz version 2.38.0 (20140413.2041)
 -->
<!-- Title: %3 Pages: 1 -->
<svg width="626pt" height="260pt"
 viewBox="0.00 0.00 626.24 260.00" xmlns="http://www.w3.org/2000/svg" xmlns:xlink="http://www.w3.org/1999/xlink">
<g id="graph0" class="graph" transform="scale(1 1) rotate(0) translate(4 256)">
<title>%3</title>
<polygon fill="white" stroke="none" points="-4,4 -4,-256 622.239,-256 622.239,4 -4,4"/>
<!-- application -->
<g id="node1" class="node"><title>application</title>
<ellipse fill="none" stroke="black" cx="402.093" cy="-234" rx="50.0912" ry="18"/>
<text text-anchor="middle" x="402.093" y="-230.3" font-family="Times,serif" font-size="14.00">application</text>
</g>
<!-- cryptography 1.8.1 -->
<g id="node2" class="node"><title>cryptography 1.8.1</title>
<ellipse fill="none" stroke="black" cx="320.093" cy="-162" rx="77.9862" ry="18"/>
<text text-anchor="middle" x="320.093" y="-158.3" font-family="Times,serif" font-size="14.00">cryptography 1.8.1</text>
</g>
<!-- application&#45;&gt;cryptography 1.8.1 -->
<g id="edge1" class="edge"><title>application&#45;&gt;cryptography 1.8.1</title>
<path fill="none" stroke="black" d="M383.486,-217.116C372.813,-208.005 359.219,-196.4 347.359,-186.276"/>
<polygon fill="black" stroke="black" points="349.361,-183.382 339.482,-179.552 344.816,-188.706 349.361,-183.382"/>
</g>
<!-- hypothesis 3.7.0 -->
<g id="node3" class="node"><title>hypothesis 3.7.0</title>
<ellipse fill="none" stroke="black" cx="485.093" cy="-162" rx="68.7879" ry="18"/>
<text text-anchor="middle" x="485.093" y="-158.3" font-family="Times,serif" font-size="14.00">hypothesis 3.7.0</text>
</g>
<!-- application&#45;&gt;hypothesis 3.7.0 -->
<g id="edge2" class="edge"><title>application&#45;&gt;hypothesis 3.7.0</title>
<path fill="none" stroke="black" d="M420.927,-217.116C431.913,-207.851 445.956,-196.008 458.102,-185.764"/>
<polygon fill="black" stroke="black" points="460.37,-188.43 465.758,-179.307 455.857,-183.079 460.37,-188.43"/>
</g>
<!-- asn1crypto 0.22.0 -->
<g id="node4" class="node"><title>asn1crypto 0.22.0</title>
<ellipse fill="none" stroke="black" cx="74.0934" cy="-90" rx="74.187" ry="18"/>
<text text-anchor="middle" x="74.0934" y="-86.3" font-family="Times,serif" font-size="14.00">asn1crypto 0.22.0</text>
</g>
<!-- cryptography 1.8.1&#45;&gt;asn1crypto 0.22.0 -->
<g id="edge3" class="edge"><title>cryptography 1.8.1&#45;&gt;asn1crypto 0.22.0</title>
<path fill="none" stroke="black" d="M272.953,-147.586C232.183,-135.985 173.169,-119.192 130.019,-106.914"/>
<polygon fill="black" stroke="black" points="130.817,-103.502 120.241,-104.131 128.901,-110.235 130.817,-103.502"/>
</g>
<!-- cffi 1.10.0 -->
<g id="node5" class="node"><title>cffi 1.10.0</title>
<ellipse fill="none" stroke="black" cx="214.093" cy="-90" rx="48.1917" ry="18"/>
<text text-anchor="middle" x="214.093" y="-86.3" font-family="Times,serif" font-size="14.00">cffi 1.10.0</text>
</g>
<!-- cryptography 1.8.1&#45;&gt;cffi 1.10.0 -->
<g id="edge4" class="edge"><title>cryptography 1.8.1&#45;&gt;cffi 1.10.0</title>
<path fill="none" stroke="black" d="M295.508,-144.765C280.544,-134.882 261.288,-122.166 245.26,-111.582"/>
<polygon fill="black" stroke="black" points="247.009,-108.542 236.736,-105.952 243.151,-114.384 247.009,-108.542"/>
</g>
<!-- idna 2.5 -->
<g id="node6" class="node"><title>idna 2.5</title>
<ellipse fill="none" stroke="black" cx="320.093" cy="-90" rx="39.7935" ry="18"/>
<text text-anchor="middle" x="320.093" y="-86.3" font-family="Times,serif" font-size="14.00">idna 2.5</text>
</g>
<!-- cryptography 1.8.1&#45;&gt;idna 2.5 -->
<g id="edge5" class="edge"><title>cryptography 1.8.1&#45;&gt;idna 2.5</title>
<path fill="none" stroke="black" d="M320.093,-143.697C320.093,-135.983 320.093,-126.712 320.093,-118.112"/>
<polygon fill="black" stroke="black" points="323.594,-118.104 320.093,-108.104 316.594,-118.104 323.594,-118.104"/>
</g>
<!-- packaging 16.8 -->
<g id="node7" class="node"><title>packaging 16.8</title>
<ellipse fill="none" stroke="black" cx="443.093" cy="-90" rx="64.9885" ry="18"/>
<text text-anchor="middle" x="443.093" y="-86.3" font-family="Times,serif" font-size="14.00">packaging 16.8</text>
</g>
<!-- cryptography 1.8.1&#45;&gt;packaging 16.8 -->
<g id="edge6" class="edge"><title>cryptography 1.8.1&#45;&gt;packaging 16.8</title>
<path fill="none" stroke="black" d="M348.004,-145.116C365.425,-135.202 388.033,-122.335 406.833,-111.636"/>
<polygon fill="black" stroke="black" points="408.757,-114.568 415.717,-106.58 405.295,-108.484 408.757,-114.568"/>
</g>
<!-- six 1.10.0 -->
<g id="node8" class="node"><title>six 1.10.0</title>
<ellipse fill="none" stroke="black" cx="572.093" cy="-90" rx="46.2923" ry="18"/>
<text text-anchor="middle" x="572.093" y="-86.3" font-family="Times,serif" font-size="14.00">six 1.10.0</text>
</g>
<!-- cryptography 1.8.1&#45;&gt;six 1.10.0 -->
<g id="edge7" class="edge"><title>cryptography 1.8.1&#45;&gt;six 1.10.0</title>
<path fill="none" stroke="black" d="M370.028,-148.111C409.935,-137.679 467.246,-122.404 517.093,-108 520.46,-107.027 523.936,-106.002 527.429,-104.957"/>
<polygon fill="black" stroke="black" points="528.681,-108.235 537.237,-101.986 526.652,-101.535 528.681,-108.235"/>
</g>
<!-- pycparser 2.17 -->
<g id="node9" class="node"><title>pycparser 2.17</title>
<ellipse fill="none" stroke="black" cx="214.093" cy="-18" rx="63.0888" ry="18"/>
<text text-anchor="middle" x="214.093" y="-14.3" font-family="Times,serif" font-size="14.00">pycparser 2.17</text>
</g>
<!-- cffi 1.10.0&#45;&gt;pycparser 2.17 -->
<g id="edge8" class="edge"><title>cffi 1.10.0&#45;&gt;pycparser 2.17</title>
<path fill="none" stroke="black" d="M214.093,-71.6966C214.093,-63.9827 214.093,-54.7125 214.093,-46.1124"/>
<polygon fill="black" stroke="black" points="217.594,-46.1043 214.093,-36.1043 210.594,-46.1044 217.594,-46.1043"/>
</g>
</g>
</svg>
